<?xml version="1.0" encoding="utf-8"?>
<svg width="970" height="250" viewBox="0 0 970 250" fill="none" xmlns="http://www.w3.org/2000/svg">
  <defs>
    <linearGradient id="gradient_1" gradientUnits="userSpaceOnUse" x1="0" y1="125" x2="970" y2="125">
      <stop offset="0" stop-color="#000053" />
      <stop offset="1" stop-color="#49C698" />
    </linearGradient>
    <clipPath id="clip_path_2">
      <rect width="970" height="250" rx="30" />
    </clipPath>
  </defs>
  <g clip-path="url(#clip_path_2)">
    <rect width="970" height="250" fill="url(#gradient_1)" fill-rule="evenodd" />
    <g transform="translate(-316 -423)">
      <g transform="translate(942.561 195.643)">
        <path d="M250.83 520.347C815.58 378.687 461.454 283.687 922.509 102.492C1383.56 -78.702 3046.44 35.5269 3046.44 35.5269L251.487 1130.36C251.487 1130.36 -313.92 662.006 250.83 520.347Z" />
        <path d="M922.509 102.492C461.454 283.687 815.58 378.687 250.83 520.347C-313.92 662.006 251.487 1130.36 251.487 1130.36L3044.26 36.38L3046.44 35.5269C3046.44 35.5269 3045.65 35.4727 3044.1 35.3685C2974.56 30.6906 1373.52 -74.7551 922.509 102.492ZM3041.93 36.2207Q2939.03 29.2209 2779.36 21.5086Q2453.25 5.75562 2157.36 2.06166Q1743.25 -3.10767 1448.95 16.5854Q1081.22 41.1931 922.875 103.423Q781.673 158.912 712.898 216.552Q685.779 239.276 665.636 265.772Q653.611 281.586 635.453 311.852Q614.691 346.452 600.453 363.429Q576.876 391.539 541.556 414.314Q454.892 470.201 251.073 521.317Q57.431 569.888 13.6026 675.806Q-21.4362 760.482 40.2624 878.009Q84.4232 962.123 172.688 1054.27Q200.255 1083.05 228.968 1109.22Q242.933 1121.94 251.671 1129.21L3041.93 36.2207Z" fill="#FFFFFF" fill-rule="evenodd" />
      </g>
      <g transform="translate(609 135)">
        <path d="M250.83 520.347C815.58 378.687 461.454 283.687 922.509 102.492C1383.56 -78.702 3046.44 35.5269 3046.44 35.5269L251.487 1130.36C251.487 1130.36 -313.92 662.006 250.83 520.347Z" />
        <path d="M922.509 102.492C461.454 283.687 815.58 378.687 250.83 520.347C-313.92 662.006 251.487 1130.36 251.487 1130.36L3044.26 36.38L3046.44 35.5269C3046.44 35.5269 3045.65 35.4727 3044.1 35.3685C2974.56 30.6906 1373.52 -74.7551 922.509 102.492ZM3041.93 36.2208Q2939.03 29.2211 2779.36 21.5087Q2453.25 5.75391 2157.36 2.06169Q1743.25 -3.10938 1448.95 16.5854Q1081.2 41.1953 922.875 103.423Q781.672 158.92 712.898 216.552Q685.781 239.278 665.636 265.772Q653.613 281.586 635.453 311.852Q614.693 346.449 600.453 363.429Q576.879 391.537 541.556 414.314Q454.891 470.188 251.073 521.317Q57.4297 569.883 13.6026 675.806Q-21.4296 760.469 40.2625 878.009Q84.4141 962.125 172.688 1054.27Q200.254 1083.05 228.968 1109.22Q242.926 1121.94 251.671 1129.21L3041.93 36.2208Z" fill="#FFFFFF" fill-rule="evenodd" />
      </g>
      <g transform="translate(475 108)">
        <path d="M250.83 520.347C815.58 378.687 461.454 283.687 922.509 102.492C1383.56 -78.702 3046.44 35.5269 3046.44 35.5269L251.487 1130.36C251.487 1130.36 -313.92 662.006 250.83 520.347Z" />
        <path d="M922.509 102.492C461.454 283.687 815.58 378.687 250.83 520.347C-313.92 662.006 251.487 1130.36 251.487 1130.36L3044.26 36.38L3046.44 35.5269C3046.44 35.5269 3045.65 35.4727 3044.1 35.3685C2974.56 30.6906 1373.52 -74.7551 922.509 102.492ZM3041.93 36.2208Q2939.03 29.223 2779.36 21.5086Q2453.25 5.75391 2157.36 2.06166Q1743.19 -3.10938 1448.95 16.5854Q1081.2 41.1914 922.875 103.423Q781.68 158.916 712.898 216.552Q685.781 239.276 665.636 265.772Q653.613 281.587 635.453 311.852Q614.693 346.448 600.453 363.429Q576.883 391.535 541.556 414.314Q454.906 470.188 251.073 521.317Q57.4297 569.883 13.6026 675.806Q-21.4297 760.469 40.2624 878.009Q84.4141 962.109 172.688 1054.27Q200.254 1083.05 228.968 1109.22Q242.926 1121.94 251.671 1129.21L3041.93 36.2208Z" fill="#FFFFFF" fill-rule="evenodd" />
      </g>
      <g transform="translate(349 83)">
        <path d="M250.83 520.347C815.58 378.687 461.454 283.687 922.509 102.492C1383.56 -78.702 3046.44 35.5269 3046.44 35.5269L251.487 1130.36C251.487 1130.36 -313.92 662.006 250.83 520.347Z" />
        <path d="M922.509 102.492C461.454 283.687 815.58 378.687 250.83 520.347C-313.92 662.006 251.487 1130.36 251.487 1130.36L3044.26 36.38L3046.44 35.5269C3046.44 35.5269 3045.65 35.4727 3044.1 35.3685C2974.56 30.6906 1373.52 -74.7551 922.509 102.492ZM3041.93 36.2208Q2939.06 29.2249 2779.36 21.5086Q2453.25 5.75391 2157.36 2.06169Q1743.19 -3.10742 1448.95 16.5854Q1081.2 41.1934 922.875 103.423Q781.672 158.918 712.898 216.552Q685.779 239.276 665.636 265.772Q653.613 281.586 635.453 311.852Q614.693 346.448 600.453 363.429Q576.883 391.533 541.556 414.314Q454.914 470.188 251.073 521.317Q57.4336 569.883 13.6024 675.806Q-21.4336 760.477 40.2624 878.009Q84.4141 962.109 172.688 1054.27Q200.254 1083.05 228.968 1109.22Q242.927 1121.94 251.671 1129.21L3041.93 36.2208Z" fill="#FFFFFF" fill-rule="evenodd" />
      </g>
      <g transform="translate(240 64)">
        <path d="M250.83 520.347C815.58 378.687 461.454 283.687 922.509 102.492C1383.56 -78.702 3046.44 35.5269 3046.44 35.5269L251.486 1130.36C251.486 1130.36 -313.92 662.006 250.83 520.347Z" />
        <path d="M922.509 102.492C461.454 283.687 815.58 378.687 250.83 520.347C-313.92 662.006 251.487 1130.36 251.487 1130.36L3044.26 36.38L3046.44 35.5269C3046.44 35.5269 3045.65 35.4727 3044.1 35.3685C2974.56 30.6906 1373.52 -74.7551 922.509 102.492ZM3041.93 36.2208Q2939.06 29.2239 2779.36 21.5086Q2453.25 5.75391 2157.36 2.06169Q1743.22 -3.10742 1448.95 16.5854Q1081.22 41.1953 922.875 103.423Q781.664 158.924 712.898 216.552Q685.776 239.283 665.636 265.772Q653.613 281.586 635.453 311.852Q614.693 346.448 600.453 363.429Q576.883 391.531 541.556 414.314Q454.922 470.188 251.073 521.317Q57.4298 569.891 13.6026 675.806Q-21.4296 760.477 40.2624 878.009Q84.4142 962.125 172.688 1054.27Q200.254 1083.05 228.968 1109.22Q242.929 1121.94 251.671 1129.21L3041.93 36.2208Z" fill="#FFFFFF" fill-rule="evenodd" />
      </g>
      <g transform="translate(173 36)">
        <path d="M250.83 520.347C815.58 378.687 461.454 283.687 922.509 102.492C1383.56 -78.702 3046.44 35.5269 3046.44 35.5269L251.487 1130.36C251.487 1130.36 -313.92 662.006 250.83 520.347Z" />
        <path d="M922.509 102.492C461.454 283.687 815.58 378.687 250.83 520.347C-313.92 662.006 251.487 1130.36 251.487 1130.36L3044.26 36.38L3046.44 35.5269C3046.44 35.5269 3045.65 35.4727 3044.1 35.3685C2974.56 30.6906 1373.52 -74.7551 922.509 102.492ZM3041.93 36.2207Q2939.06 29.222 2779.36 21.5087Q2453.25 5.7539 2157.36 2.0617Q1743.25 -3.10743 1448.95 16.5854Q1081.22 41.1953 922.875 103.423Q781.664 158.922 712.898 216.552Q685.775 239.282 665.636 265.772Q653.613 281.586 635.453 311.852Q614.693 346.448 600.453 363.429Q576.885 391.531 541.556 414.314Q454.914 470.188 251.073 521.317Q57.4298 569.891 13.6026 675.806Q-21.4335 760.477 40.2624 878.009Q84.4102 962.109 172.688 1054.27Q200.254 1083.05 228.968 1109.22Q242.93 1121.94 251.671 1129.21L3041.93 36.2207Z" fill="#FFFFFF" fill-rule="evenodd" />
      </g>
      <g transform="translate(89 23)">
        <path d="M250.83 520.347C815.58 378.687 461.454 283.687 922.509 102.492C1383.56 -78.702 3046.44 35.5269 3046.44 35.5269L251.487 1130.36C251.487 1130.36 -313.92 662.006 250.83 520.347Z" />
        <path d="M922.509 102.492C461.454 283.687 815.58 378.687 250.83 520.347C-313.92 662.006 251.487 1130.36 251.487 1130.36L3044.26 36.3801L3046.44 35.5269C3046.44 35.5269 3045.65 35.4727 3044.1 35.3685C2974.56 30.6906 1373.52 -74.7551 922.509 102.492ZM3041.93 36.2208Q2938.76 29.2053 2778.93 21.4876Q2452.75 5.73974 2156.93 2.05642Q1742.91 -3.09766 1448.75 16.5986Q1081.19 41.2109 922.875 103.423Q781.672 158.914 712.898 216.552Q685.775 239.282 665.636 265.772Q653.613 281.586 635.453 311.852Q614.693 346.448 600.453 363.429Q576.883 391.533 541.556 414.314Q454.922 470.188 251.073 521.317Q57.4298 569.891 13.6026 675.806Q-21.4335 760.477 40.2624 878.009Q84.4141 962.125 172.688 1054.27Q200.254 1083.05 228.968 1109.22Q242.929 1121.94 251.671 1129.21L3041.93 36.2208Z" fill="#FFFFFF" fill-rule="evenodd" />
      </g>
      <g transform="translate(34 12)">
        <path d="M250.83 520.347C815.58 378.687 461.454 283.687 922.509 102.492C1383.56 -78.702 3046.44 35.5269 3046.44 35.5269L251.487 1130.36C251.487 1130.36 -313.92 662.006 250.83 520.347Z" />
        <path d="M922.509 102.492C461.454 283.687 815.58 378.687 250.83 520.347C-313.92 662.006 251.487 1130.36 251.487 1130.36L3044.26 36.38L3046.44 35.5269C3046.44 35.5269 3045.65 35.4727 3044.1 35.3685C2974.56 30.6906 1373.52 -74.7551 922.509 102.492ZM3041.93 36.2208Q2938.76 29.2053 2778.93 21.4876Q2452.75 5.73974 2156.93 2.05642Q1742.94 -3.09864 1448.75 16.5986Q1081.19 41.209 922.875 103.423Q781.664 158.916 712.898 216.552Q685.777 239.282 665.636 265.772Q653.613 281.586 635.453 311.852Q614.693 346.448 600.453 363.429Q576.885 391.531 541.556 414.314Q454.918 470.188 251.073 521.317Q57.4303 569.891 13.6026 675.806Q-21.4335 760.477 40.2624 878.009Q84.4122 962.125 172.688 1054.27Q200.254 1083.05 228.968 1109.22Q242.929 1121.94 251.671 1129.21L3041.93 36.2208Z" fill="#FFFFFF" fill-rule="evenodd" />
      </g>
      <g>
        <path d="M250.83 520.347C815.58 378.687 461.454 283.687 922.509 102.492C1383.56 -78.702 3046.44 35.5269 3046.44 35.5269L251.487 1130.36C251.487 1130.36 -313.92 662.006 250.83 520.347Z" />
        <path d="M922.509 102.492C461.454 283.687 815.58 378.687 250.83 520.347C-313.92 662.006 251.487 1130.36 251.487 1130.36L3044.26 36.38L3046.44 35.5269C3046.44 35.5269 3045.65 35.4727 3044.1 35.3685C2974.56 30.6906 1373.52 -74.7551 922.509 102.492ZM3041.93 36.2208Q2938.76 29.2051 2778.93 21.4876Q2452.75 5.7395 2156.93 2.05642Q1742.94 -3.09863 1448.75 16.5986Q1081.19 41.209 922.875 103.423Q781.672 158.914 712.898 216.552Q685.777 239.282 665.636 265.772Q653.611 281.587 635.453 311.852Q614.693 346.448 600.453 363.429Q576.885 391.531 541.556 414.314Q454.914 470.188 251.073 521.317Q57.4303 569.883 13.6026 675.806Q-21.433 760.477 40.2624 878.009Q84.4141 962.109 172.688 1054.27Q200.258 1083.05 228.968 1109.22Q242.932 1121.94 251.671 1129.21L3041.93 36.2208Z" fill="#FFFFFF" fill-rule="evenodd" />
      </g>
      <g transform="translate(768 154)">
        <path d="M250.83 520.347C815.58 378.687 461.454 283.687 922.509 102.492C1383.56 -78.702 3046.44 35.5269 3046.44 35.5269L251.487 1130.36C251.487 1130.36 -313.92 662.006 250.83 520.347Z" />
        <path d="M922.509 102.492C461.454 283.687 815.58 378.687 250.83 520.347C-313.92 662.006 251.487 1130.36 251.487 1130.36L3044.26 36.38L3046.44 35.5269C3046.44 35.5269 3045.65 35.4727 3044.1 35.3685C2974.56 30.6906 1373.52 -74.7551 922.509 102.492ZM3041.93 36.2208Q2939.03 29.2211 2779.36 21.5087Q2453.25 5.75391 2157.36 2.06169Q1743.19 -3.10547 1448.95 16.5854Q1081.22 41.1953 922.875 103.423Q781.672 158.914 712.898 216.552Q685.777 239.278 665.636 265.772Q653.613 281.586 635.453 311.852Q614.691 346.451 600.453 363.429Q576.879 391.539 541.556 414.314Q454.891 470.203 251.073 521.317Q57.4297 569.883 13.6026 675.806Q-21.4374 760.484 40.2625 878.009Q84.4219 962.125 172.688 1054.27Q200.254 1083.05 228.968 1109.22Q242.926 1121.94 251.671 1129.21L3041.93 36.2208Z" fill="#FFFFFF" fill-rule="evenodd" />
      </g>
    </g>
  </g>
</svg>